<svg width="20" height="20" viewBox="0 0 20 20" fill="none" xmlns="http://www.w3.org/2000/svg">
<mask id="mask0_13636_11533" style="mask-type:alpha" maskUnits="userSpaceOnUse" x="0" y="0" width="20" height="20">
<rect width="20" height="20" fill="#D9D9D9"/>
</mask>
<g mask="url(#mask0_13636_11533)">
<path d="M8.75 4.5H4V15.5H8.75V4.5ZM4 17C3.5875 17 3.23437 16.8531 2.94062 16.5594C2.64687 16.2656 2.5 15.9125 2.5 15.5V4.5C2.5 4.0875 2.64687 3.73438 2.94062 3.44063C3.23437 3.14688 3.5875 3 4 3H15C15.4125 3 15.7656 3.14653 16.0594 3.43958C16.3531 3.73264 16.5 4.08486 16.5 4.49625V5.24458C16.5 5.45653 16.4285 5.63542 16.2856 5.78125C16.1427 5.92708 15.9656 6 15.7544 6C15.5431 6 15.3646 5.92813 15.2188 5.78438C15.0729 5.64063 15 5.4625 15 5.25V4.5H10.25V15.5H15V14.7544C15 14.5431 15.0715 14.3646 15.2144 14.2188C15.3573 14.0729 15.5344 14 15.7456 14C15.9569 14 16.1354 14.0721 16.2812 14.2163C16.4271 14.3604 16.5 14.5391 16.5 14.7523V15.5044C16.5 15.9181 16.3531 16.2708 16.0594 16.5625C15.7656 16.8542 15.4125 17 15 17H4ZM15.2188 12.2844C15.0729 12.1406 15 11.9625 15 11.75V10.75H14C13.7875 10.75 13.6094 10.6785 13.4656 10.5356C13.3219 10.3927 13.25 10.2156 13.25 10.0044C13.25 9.79313 13.3219 9.61458 13.4656 9.46875C13.6094 9.32292 13.7875 9.25 14 9.25H15V8.25C15 8.0375 15.0715 7.85938 15.2144 7.71562C15.3573 7.57187 15.5344 7.5 15.7456 7.5C15.9569 7.5 16.1354 7.57187 16.2812 7.71562C16.4271 7.85938 16.5 8.0375 16.5 8.25V9.25H17.5C17.7125 9.25 17.8906 9.32146 18.0344 9.46438C18.1781 9.60729 18.25 9.78438 18.25 9.99563C18.25 10.2069 18.1781 10.3854 18.0344 10.5312C17.8906 10.6771 17.7125 10.75 17.5 10.75H16.5V11.75C16.5 11.9625 16.4285 12.1406 16.2856 12.2844C16.1427 12.4281 15.9656 12.5 15.7544 12.5C15.5431 12.5 15.3646 12.4281 15.2188 12.2844Z" fill="#282828"/>
</g>
</svg>
