<svg width="20" height="20" viewBox="0 0 20 20" fill="none" xmlns="http://www.w3.org/2000/svg">
<mask id="mask0_13636_11555" style="mask-type:alpha" maskUnits="userSpaceOnUse" x="0" y="0" width="20" height="20">
<rect width="20" height="20" fill="#D9D9D9"/>
</mask>
<g mask="url(#mask0_13636_11555)">
<path d="M4.5 11.25V16H15.5V11.25H4.5ZM4.5 17.5C4.0875 17.5 3.73437 17.3531 3.44062 17.0594C3.14687 16.7656 3 16.4125 3 16V5C3 4.5875 3.14653 4.23438 3.43958 3.94063C3.73264 3.64688 4.08486 3.5 4.49625 3.5H5.24458C5.45653 3.5 5.63542 3.57146 5.78125 3.71437C5.92708 3.85729 6 4.03437 6 4.24562C6 4.45687 5.92812 4.63542 5.78437 4.78125C5.64062 4.92708 5.4625 5 5.25 5H4.5V9.75H15.5V5H14.7544C14.5431 5 14.3646 4.92854 14.2188 4.78563C14.0729 4.64271 14 4.46563 14 4.25438C14 4.04313 14.0721 3.86458 14.2163 3.71875C14.3604 3.57292 14.5391 3.5 14.7523 3.5H15.5044C15.9181 3.5 16.2708 3.64688 16.5625 3.94063C16.8542 4.23438 17 4.5875 17 5V16C17 16.4125 16.8531 16.7656 16.5594 17.0594C16.2656 17.3531 15.9125 17.5 15.5 17.5H4.5ZM9.25 5H8.25C8.0375 5 7.85938 4.92854 7.71563 4.78563C7.57188 4.64271 7.5 4.46563 7.5 4.25438C7.5 4.04313 7.57188 3.86458 7.71563 3.71875C7.85938 3.57292 8.0375 3.5 8.25 3.5H9.25V2.5C9.25 2.2875 9.32146 2.10937 9.46438 1.96562C9.60729 1.82187 9.78438 1.75 9.99563 1.75C10.2069 1.75 10.3854 1.82187 10.5312 1.96562C10.6771 2.10937 10.75 2.2875 10.75 2.5V3.5H11.75C11.9625 3.5 12.1406 3.57146 12.2844 3.71437C12.4281 3.85729 12.5 4.03437 12.5 4.24562C12.5 4.45687 12.4281 4.63542 12.2844 4.78125C12.1406 4.92708 11.9625 5 11.75 5H10.75V6C10.75 6.2125 10.6785 6.39063 10.5356 6.53438C10.3927 6.67813 10.2156 6.75 10.0044 6.75C9.79313 6.75 9.61458 6.67813 9.46875 6.53438C9.32292 6.39063 9.25 6.2125 9.25 6V5Z" fill="#282828"/>
</g>
</svg>
