<svg width="20" height="20" viewBox="0 0 20 20" fill="none" xmlns="http://www.w3.org/2000/svg">
<mask id="mask0_13636_11538" style="mask-type:alpha" maskUnits="userSpaceOnUse" x="0" y="0" width="20" height="20">
<rect width="20" height="20" fill="#D9D9D9"/>
</mask>
<g mask="url(#mask0_13636_11538)">
<path d="M11.25 15.5H16V4.5H11.25V15.5ZM5 17C4.5875 17 4.23438 16.8535 3.94062 16.5604C3.64687 16.2674 3.5 15.9151 3.5 15.5037V14.7554C3.5 14.5435 3.57146 14.3646 3.71437 14.2188C3.85729 14.0729 4.03437 14 4.24563 14C4.45688 14 4.63542 14.0719 4.78125 14.2156C4.92708 14.3594 5 14.5375 5 14.75V15.5H9.75V4.5H5V5.24562C5 5.45687 4.92854 5.63542 4.78563 5.78125C4.64271 5.92708 4.46563 6 4.25438 6C4.04313 6 3.86458 5.92792 3.71875 5.78375C3.57292 5.63958 3.5 5.4609 3.5 5.24771V4.49562C3.5 4.08187 3.64687 3.72917 3.94062 3.4375C4.23438 3.14583 4.5875 3 5 3H16C16.4125 3 16.7656 3.14688 17.0594 3.44063C17.3531 3.73438 17.5 4.0875 17.5 4.5V15.5C17.5 15.9125 17.3531 16.2656 17.0594 16.5594C16.7656 16.8531 16.4125 17 16 17H5ZM3.71875 12.2844C3.57292 12.1406 3.5 11.9625 3.5 11.75V10.75H2.5C2.2875 10.75 2.10938 10.6785 1.96562 10.5356C1.82187 10.3927 1.75 10.2156 1.75 10.0044C1.75 9.79313 1.82187 9.61458 1.96562 9.46875C2.10938 9.32292 2.2875 9.25 2.5 9.25H3.5V8.25C3.5 8.0375 3.57146 7.85938 3.71437 7.71562C3.85729 7.57187 4.03437 7.5 4.24563 7.5C4.45688 7.5 4.63542 7.57187 4.78125 7.71562C4.92708 7.85938 5 8.0375 5 8.25V9.25H6C6.2125 9.25 6.39062 9.32146 6.53438 9.46438C6.67813 9.60729 6.75 9.78438 6.75 9.99563C6.75 10.2069 6.67813 10.3854 6.53438 10.5312C6.39062 10.6771 6.2125 10.75 6 10.75H5V11.75C5 11.9625 4.92854 12.1406 4.78563 12.2844C4.64271 12.4281 4.46563 12.5 4.25438 12.5C4.04313 12.5 3.86458 12.4281 3.71875 12.2844Z" fill="#282828"/>
</g>
</svg>
