<svg width="20" height="20" viewBox="0 0 20 20" fill="none" xmlns="http://www.w3.org/2000/svg">
<mask id="mask0_9574_19585" style="mask-type:alpha" maskUnits="userSpaceOnUse" x="0" y="0" width="20" height="20">
<rect width="20" height="20" fill="#D9D9D9"/>
</mask>
<g mask="url(#mask0_9574_19585)">
<path d="M7.04199 16C6.62949 16 6.27637 15.8531 5.98262 15.5594C5.68887 15.2656 5.54199 14.9125 5.54199 14.5V5.5C5.54199 5.0875 5.68887 4.73438 5.98262 4.44063C6.27637 4.14688 6.62949 4 7.04199 4H10.292C11.2206 4 12.0778 4.28694 12.8635 4.86083C13.6491 5.43486 14.042 6.23125 14.042 7.25C14.042 7.95833 13.8857 8.51042 13.5732 8.90625C13.2607 9.30208 12.9656 9.59056 12.6878 9.77167C13.0489 9.93778 13.4378 10.2361 13.8545 10.6667C14.2712 11.0972 14.4795 11.7292 14.4795 12.5625C14.4795 13.8264 14.0136 14.7153 13.0818 15.2292C12.1501 15.7431 11.2757 16 10.4587 16H7.04199ZM8.18783 13.5417H10.3687C11.0398 13.5417 11.4448 13.3715 11.5837 13.0312C11.7225 12.691 11.792 12.4444 11.792 12.2917C11.792 12.1389 11.7191 11.8924 11.5732 11.5521C11.4274 11.2118 11.0003 11.0417 10.292 11.0417H8.18783V13.5417ZM8.18783 8.70833H10.1253C10.5837 8.70833 10.9205 8.58681 11.1357 8.34375C11.351 8.10069 11.4587 7.84028 11.4587 7.5625C11.4587 7.22917 11.3398 6.95833 11.1022 6.75C10.8646 6.54167 10.5571 6.4375 10.1797 6.4375H8.18783V8.70833Z" fill="#282828"/>
</g>
</svg>
