<svg width="18" height="18" viewBox="0 0 18 18" fill="none" xmlns="http://www.w3.org/2000/svg">
<mask id="mask0_13698_4980" style="mask-type:alpha" maskUnits="userSpaceOnUse" x="0" y="0" width="18" height="18">
<rect width="18" height="18" fill="#D9D9D9"/>
</mask>
<g mask="url(#mask0_13698_4980)">
<path d="M3.15078 13.5C2.77953 13.5 2.46172 13.3678 2.19734 13.1034C1.93297 12.8391 1.80078 12.5212 1.80078 12.15V5.85C1.80078 5.47875 1.93297 5.16094 2.19734 4.89656C2.46172 4.63219 2.77953 4.5 3.15078 4.5H14.8508C15.222 4.5 15.5398 4.63219 15.8042 4.89656C16.0686 5.16094 16.2008 5.47875 16.2008 5.85V12.15C16.2008 12.5212 16.0686 12.8391 15.8042 13.1034C15.5398 13.3678 15.222 13.5 14.8508 13.5H3.15078ZM3.15078 12.15H14.8508V5.85H3.15078V12.15ZM5.62578 9.675V10.575C5.62578 10.7625 5.69141 10.9219 5.82266 11.0531C5.95391 11.1844 6.11328 11.25 6.30078 11.25C6.48828 11.25 6.64766 11.1844 6.77891 11.0531C6.91016 10.9219 6.97578 10.7625 6.97578 10.575V9.675H7.87578C8.06541 9.675 8.22216 9.60938 8.34603 9.47813C8.47003 9.34687 8.53203 9.1875 8.53203 9C8.53203 8.8125 8.46641 8.65312 8.33516 8.52187C8.20391 8.39062 8.04453 8.325 7.85703 8.325H6.97578V7.425C6.97578 7.2375 6.91016 7.07812 6.77891 6.94687C6.64766 6.81562 6.48828 6.75 6.30078 6.75C6.11328 6.75 5.95391 6.81562 5.82266 6.94687C5.69141 7.07812 5.62578 7.2375 5.62578 7.425V8.325H4.72578C4.53828 8.325 4.37891 8.39062 4.24766 8.52187C4.11641 8.65312 4.05078 8.8125 4.05078 9C4.05078 9.1875 4.11641 9.34687 4.24766 9.47813C4.37891 9.60938 4.53828 9.675 4.72578 9.675H5.62578Z" fill="#282828"/>
</g>
</svg>
