<svg width="20" height="20" viewBox="0 0 20 20" fill="none" xmlns="http://www.w3.org/2000/svg">
<path d="M7.05585 13.0028C6.59752 13.0028 6.23294 12.8674 5.9621 12.5966C5.69127 12.3258 5.55585 11.9612 5.55585 11.5028V4.50284C5.55585 4.04451 5.69127 3.67992 5.9621 3.40909C6.23294 3.13825 6.59752 3.00284 7.05585 3.00284H16.5559C17.0142 3.00284 17.3788 3.13825 17.6496 3.40909C17.9204 3.67992 18.0559 4.04451 18.0559 4.50284V11.5028C18.0559 11.9612 17.9204 12.3258 17.6496 12.5966C17.3788 12.8674 17.0142 13.0028 16.5559 13.0028H7.05585ZM7.05585 11.5028H16.5559V4.50284H7.05585V11.5028ZM14.3059 7.50284C14.5003 7.50284 14.6739 7.43096 14.8267 7.28721C14.9795 7.14346 15.0559 6.96534 15.0559 6.75284C15.0559 6.55839 14.9795 6.38478 14.8267 6.232C14.6739 6.07923 14.5003 6.00284 14.3059 6.00284H9.28502C9.09058 6.00284 8.92044 6.07923 8.77461 6.232C8.62877 6.38478 8.55586 6.56187 8.55586 6.76325C8.55586 6.96464 8.62773 7.13825 8.77148 7.28409C8.91523 7.42992 9.09336 7.50284 9.30586 7.50284H14.3059ZM12.0559 10.0028C12.2503 10.0028 12.4239 9.93096 12.5767 9.78721C12.7295 9.64346 12.8059 9.46534 12.8059 9.25284C12.8059 9.05839 12.7295 8.88478 12.5767 8.73201C12.4239 8.57923 12.2503 8.50284 12.0559 8.50284H9.28502C9.09058 8.50284 8.92044 8.57923 8.77461 8.73201C8.62877 8.88478 8.55586 9.06187 8.55586 9.26326C8.55586 9.46464 8.62773 9.63825 8.77148 9.78409C8.91523 9.92992 9.09336 10.0028 9.30586 10.0028H12.0559ZM4.72252 16.982C4.31974 17.0376 3.95516 16.9403 3.62877 16.6903C3.30238 16.4403 3.10447 16.1139 3.03502 15.7112L1.95169 8.02367C1.92391 7.80853 1.97231 7.61874 2.0969 7.4543C2.22148 7.28971 2.38835 7.19478 2.59752 7.16951C2.80391 7.14173 2.99092 7.19381 3.15856 7.32576C3.3262 7.4577 3.42391 7.62089 3.45169 7.81534L4.53502 15.5028L10.3059 14.6903L13.7434 14.2112C13.9517 14.1834 14.1392 14.232 14.3059 14.357C14.4725 14.482 14.5697 14.6487 14.5975 14.857C14.6253 15.0792 14.5767 15.2771 14.4517 15.4508C14.3267 15.6244 14.1595 15.7249 13.9502 15.7522L4.72252 16.982Z" fill="#686868"/>
</svg>
