<svg width="20" height="20" viewBox="0 0 20 20" fill="none" xmlns="http://www.w3.org/2000/svg">
<mask id="mask0_13636_11526" style="mask-type:alpha" maskUnits="userSpaceOnUse" x="0" y="0" width="20" height="20">
<rect width="20" height="20" fill="#D9D9D9"/>
</mask>
<g mask="url(#mask0_13636_11526)">
<path d="M6.10417 0.520182L12.6042 7.04102C12.8819 7.31879 13.0174 7.64518 13.0104 8.02018C13.0035 8.39518 12.8681 8.71463 12.6042 8.97852L8.97917 12.6035C8.70139 12.8813 8.375 13.0202 8 13.0202C7.625 13.0202 7.29861 12.8813 7.02083 12.6035L3.39583 8.95768C3.13194 8.69379 2.99306 8.37435 2.97917 7.99935C2.96528 7.62435 3.10417 7.29796 3.39583 7.02018L6.9375 3.49935L5.02083 1.58268C4.86806 1.4299 4.79514 1.25282 4.80208 1.05143C4.80903 0.850043 4.88889 0.67296 5.04167 0.520182C5.19444 0.367405 5.37153 0.291016 5.57292 0.291016C5.77431 0.291016 5.95139 0.367405 6.10417 0.520182ZM8 4.56185L4.5625 7.99935H11.4375L8 4.56185ZM14.0104 13.4889C13.6701 13.1487 13.5 12.7355 13.5 12.2493C13.5 11.9716 13.5729 11.6764 13.7188 11.3639C13.8646 11.0514 14.0972 10.673 14.4167 10.2285C14.5278 10.0757 14.6563 9.90907 14.8021 9.72852C14.9479 9.54796 15.0972 9.3674 15.25 9.18685C15.3889 9.3674 15.5313 9.54449 15.6771 9.7181C15.8229 9.89171 15.9583 10.0618 16.0833 10.2285C16.3056 10.548 16.5139 10.8743 16.7083 11.2077C16.9028 11.541 17 11.8882 17 12.2493C17 12.7355 16.8299 13.1487 16.4896 13.4889C16.1493 13.8292 15.7361 13.9993 15.25 13.9993C14.7639 13.9993 14.3507 13.8292 14.0104 13.4889ZM4 19.9993C3.44444 19.9993 2.97222 19.8049 2.58333 19.416C2.19444 19.0271 2 18.5549 2 17.9993C2 17.4438 2.19444 16.9716 2.58333 16.5827C2.97222 16.1938 3.44444 15.9993 4 15.9993H16C16.5556 15.9993 17.0278 16.1938 17.4167 16.5827C17.8056 16.9716 18 17.4438 18 17.9993C18 18.5549 17.8056 19.0271 17.4167 19.416C17.0278 19.8049 16.5556 19.9993 16 19.9993H4Z" fill="#282828"/>
</g>
</svg>
