<svg width="18" height="18" viewBox="0 0 18 18" fill="none" xmlns="http://www.w3.org/2000/svg">
<mask id="mask0_13698_11436" style="mask-type:alpha" maskUnits="userSpaceOnUse" x="0" y="0" width="18" height="18">
<rect width="18" height="18" fill="#D9D9D9"/>
</mask>
<g mask="url(#mask0_13698_11436)">
<path d="M9.0002 11.1377L7.72388 9.86082C7.58776 9.72457 7.42895 9.65645 7.24745 9.65645C7.06595 9.65645 6.90645 9.7252 6.76895 9.8627C6.63145 10.0002 6.5627 10.1606 6.5627 10.344C6.5627 10.5273 6.63145 10.6856 6.76895 10.8189L8.5322 12.5841C8.6692 12.7198 8.82632 12.7877 9.00357 12.7877C9.18082 12.7877 9.33595 12.7189 9.46895 12.5814L11.2341 10.8163C11.3698 10.6806 11.4377 10.5221 11.4377 10.3408C11.4377 10.1596 11.3689 10.0002 11.2314 9.8627C11.0939 9.7252 10.9335 9.65645 10.7501 9.65645C10.5669 9.65645 10.4086 9.7252 10.2752 9.8627L9.0002 11.1377ZM9.0002 6.76895L10.2765 8.04582C10.4126 8.18207 10.5714 8.2502 10.7529 8.2502C10.9344 8.2502 11.0939 8.18145 11.2314 8.04395C11.3689 7.90645 11.4377 7.74563 11.4377 7.56151C11.4377 7.37738 11.3692 7.21838 11.2322 7.08451L9.46895 5.34395C9.33595 5.20645 9.18082 5.1377 9.00357 5.1377C8.82632 5.1377 8.66976 5.20563 8.53388 5.34151L6.7667 7.1087C6.6307 7.2447 6.5627 7.4002 6.5627 7.5752C6.5627 7.7502 6.63145 7.90645 6.76895 8.04395C6.90645 8.18145 7.06688 8.2502 7.25026 8.2502C7.43351 8.2502 7.59182 8.18145 7.7252 8.04395L9.0002 6.76895ZM4.0502 15.3002C3.67895 15.3002 3.36113 15.168 3.09676 14.9036C2.83238 14.6393 2.7002 14.3214 2.7002 13.9502V4.0502C2.7002 3.67895 2.83238 3.36113 3.09676 3.09676C3.36113 2.83238 3.67895 2.7002 4.0502 2.7002H13.9502C14.3214 2.7002 14.6393 2.83238 14.9036 3.09676C15.168 3.36113 15.3002 3.67895 15.3002 4.0502V13.9502C15.3002 14.3214 15.168 14.6393 14.9036 14.9036C14.6393 15.168 14.3214 15.3002 13.9502 15.3002H4.0502ZM4.0502 13.9502H13.9502V4.0502H4.0502V13.9502Z" fill="#282828"/>
</g>
</svg>
