<svg width="20" height="20" viewBox="0 0 20 20" fill="none" xmlns="http://www.w3.org/2000/svg">
<path d="M6.10417 0.37501L12.6042 6.89584C12.8819 7.17362 13.0174 7.50001 13.0104 7.87501C13.0035 8.25001 12.8681 8.56945 12.6042 8.83334L8.97917 12.4583C8.70139 12.7361 8.375 12.875 8 12.875C7.625 12.875 7.29861 12.7361 7.02083 12.4583L3.39583 8.81251C3.13194 8.54862 2.99306 8.22918 2.97917 7.85418C2.96528 7.47918 3.10417 7.15279 3.39583 6.87501L6.9375 3.35418L5.02083 1.43751C4.86806 1.28473 4.79514 1.10765 4.80208 0.90626C4.80903 0.704871 4.88889 0.527788 5.04167 0.37501C5.19444 0.222232 5.37153 0.145844 5.57292 0.145844C5.77431 0.145844 5.95139 0.222232 6.10417 0.37501ZM8 4.41668L4.5625 7.85418H11.4375L8 4.41668ZM14.0104 13.3438C13.6701 13.0035 13.5 12.5903 13.5 12.1042C13.5 11.8264 13.5729 11.5313 13.7188 11.2188C13.8646 10.9063 14.0972 10.5278 14.4167 10.0833C14.5278 9.93057 14.6563 9.7639 14.8021 9.58334C14.9479 9.40279 15.0972 9.22223 15.25 9.04168C15.3889 9.22223 15.5313 9.39932 15.6771 9.57293C15.8229 9.74654 15.9583 9.91668 16.0833 10.0833C16.3056 10.4028 16.5139 10.7292 16.7083 11.0625C16.9028 11.3958 17 11.7431 17 12.1042C17 12.5903 16.8299 13.0035 16.4896 13.3438C16.1493 13.684 15.7361 13.8542 15.25 13.8542C14.7639 13.8542 14.3507 13.684 14.0104 13.3438ZM4 19.8542C3.44444 19.8542 2.97222 19.6597 2.58333 19.2708C2.19444 18.882 2 18.4097 2 17.8542C2 17.2986 2.19444 16.8264 2.58333 16.4375C2.97222 16.0486 3.44444 15.8542 4 15.8542H16C16.5556 15.8542 17.0278 16.0486 17.4167 16.4375C17.8056 16.8264 18 17.2986 18 17.8542C18 18.4097 17.8056 18.882 17.4167 19.2708C17.0278 19.6597 16.5556 19.8542 16 19.8542H4Z" fill="#686868"/>
</svg>
