<svg width="18" height="18" viewBox="0 0 18 18" fill="none" xmlns="http://www.w3.org/2000/svg">
<mask id="mask0_13698_11442" style="mask-type:alpha" maskUnits="userSpaceOnUse" x="0" y="0" width="18" height="18">
<rect width="18" height="18" fill="#D9D9D9"/>
</mask>
<g mask="url(#mask0_13698_11442)">
<path d="M6.55332 12.4073C6.68457 12.2786 6.7502 12.1193 6.7502 11.9291C6.7502 11.739 6.68588 11.5783 6.55726 11.4471C6.42863 11.3158 6.26926 11.2502 6.07913 11.2502C5.88901 11.2502 5.72832 11.3145 5.59707 11.4431C5.46582 11.5718 5.4002 11.7311 5.4002 11.9213C5.4002 12.1114 5.46451 12.2721 5.59313 12.4033C5.72176 12.5346 5.88113 12.6002 6.07126 12.6002C6.26138 12.6002 6.42207 12.5359 6.55332 12.4073ZM6.55332 9.48226C6.68457 9.35363 6.7502 9.19426 6.7502 9.00413C6.7502 8.81401 6.68588 8.65332 6.55726 8.52207C6.42863 8.39082 6.26926 8.3252 6.07913 8.3252C5.88901 8.3252 5.72832 8.38951 5.59707 8.51813C5.46582 8.64676 5.4002 8.80613 5.4002 8.99626C5.4002 9.18638 5.46451 9.34707 5.59313 9.47832C5.72176 9.60957 5.88113 9.6752 6.07126 9.6752C6.26138 9.6752 6.42207 9.61088 6.55332 9.48226ZM6.55332 6.55726C6.68457 6.42863 6.7502 6.26926 6.7502 6.07913C6.7502 5.88901 6.68588 5.72832 6.55726 5.59707C6.42863 5.46582 6.26926 5.4002 6.07913 5.4002C5.88901 5.4002 5.72832 5.46451 5.59707 5.59313C5.46582 5.72176 5.4002 5.88113 5.4002 6.07126C5.4002 6.26138 5.46451 6.42207 5.59313 6.55332C5.72176 6.68457 5.88113 6.7502 6.07126 6.7502C6.26138 6.7502 6.42207 6.68588 6.55332 6.55726ZM8.7752 12.6002H11.9252C12.1164 12.6002 12.2768 12.5359 12.4061 12.4073C12.5355 12.2786 12.6002 12.1193 12.6002 11.9291C12.6002 11.739 12.5355 11.5783 12.4061 11.4471C12.2768 11.3158 12.1164 11.2502 11.9252 11.2502H8.7752C8.58395 11.2502 8.42363 11.3145 8.29426 11.4431C8.16488 11.5718 8.1002 11.7311 8.1002 11.9213C8.1002 12.1114 8.16488 12.2721 8.29426 12.4033C8.42363 12.5346 8.58395 12.6002 8.7752 12.6002ZM8.7752 9.6752H11.9252C12.1164 9.6752 12.2768 9.61088 12.4061 9.48226C12.5355 9.35363 12.6002 9.19426 12.6002 9.00413C12.6002 8.81401 12.5355 8.65332 12.4061 8.52207C12.2768 8.39082 12.1164 8.3252 11.9252 8.3252H8.7752C8.58395 8.3252 8.42363 8.38951 8.29426 8.51813C8.16488 8.64676 8.1002 8.80613 8.1002 8.99626C8.1002 9.18638 8.16488 9.34707 8.29426 9.47832C8.42363 9.60957 8.58395 9.6752 8.7752 9.6752ZM8.7752 6.7502H11.9252C12.1164 6.7502 12.2768 6.68588 12.4061 6.55726C12.5355 6.42863 12.6002 6.26926 12.6002 6.07913C12.6002 5.88901 12.5355 5.72832 12.4061 5.59707C12.2768 5.46582 12.1164 5.4002 11.9252 5.4002H8.7752C8.58395 5.4002 8.42363 5.46451 8.29426 5.59313C8.16488 5.72176 8.1002 5.88113 8.1002 6.07126C8.1002 6.26138 8.16488 6.42207 8.29426 6.55332C8.42363 6.68457 8.58395 6.7502 8.7752 6.7502ZM4.0502 15.3002C3.67895 15.3002 3.36113 15.168 3.09676 14.9036C2.83238 14.6393 2.7002 14.3214 2.7002 13.9502V4.0502C2.7002 3.67895 2.83238 3.36113 3.09676 3.09676C3.36113 2.83238 3.67895 2.7002 4.0502 2.7002H13.9502C14.3214 2.7002 14.6393 2.83238 14.9036 3.09676C15.168 3.36113 15.3002 3.67895 15.3002 4.0502V13.9502C15.3002 14.3214 15.168 14.6393 14.9036 14.9036C14.6393 15.168 14.3214 15.3002 13.9502 15.3002H4.0502ZM4.0502 13.9502H13.9502V4.0502H4.0502V13.9502Z" fill="#282828"/>
</g>
</svg>
