<svg width="20" height="20" viewBox="0 0 20 20" fill="none" xmlns="http://www.w3.org/2000/svg">
<path d="M7.28125 13.7856C7.42708 13.6427 7.5 13.4656 7.5 13.2544C7.5 13.0431 7.42854 12.8646 7.28562 12.7188C7.14271 12.5729 6.96562 12.5 6.75437 12.5C6.54312 12.5 6.36458 12.5715 6.21875 12.7144C6.07292 12.8573 6 13.0344 6 13.2456C6 13.4569 6.07146 13.6354 6.21438 13.7812C6.35729 13.9271 6.53438 14 6.74563 14C6.95688 14 7.13542 13.9285 7.28125 13.7856ZM7.28125 10.5356C7.42708 10.3927 7.5 10.2156 7.5 10.0044C7.5 9.79312 7.42854 9.61458 7.28562 9.46875C7.14271 9.32292 6.96562 9.25 6.75437 9.25C6.54312 9.25 6.36458 9.32146 6.21875 9.46438C6.07292 9.60729 6 9.78438 6 9.99563C6 10.2069 6.07146 10.3854 6.21438 10.5312C6.35729 10.6771 6.53438 10.75 6.74563 10.75C6.95688 10.75 7.13542 10.6785 7.28125 10.5356ZM7.28125 7.28563C7.42708 7.14271 7.5 6.96563 7.5 6.75438C7.5 6.54313 7.42854 6.36458 7.28562 6.21875C7.14271 6.07292 6.96562 6 6.75437 6C6.54312 6 6.36458 6.07146 6.21875 6.21437C6.07292 6.35729 6 6.53437 6 6.74562C6 6.95687 6.07146 7.13542 6.21438 7.28125C6.35729 7.42708 6.53438 7.5 6.74563 7.5C6.95688 7.5 7.13542 7.42854 7.28125 7.28563ZM9.75 14H13.25C13.4625 14 13.6406 13.9285 13.7844 13.7856C13.9281 13.6427 14 13.4656 14 13.2544C14 13.0431 13.9281 12.8646 13.7844 12.7188C13.6406 12.5729 13.4625 12.5 13.25 12.5H9.75C9.5375 12.5 9.35938 12.5715 9.21562 12.7144C9.07187 12.8573 9 13.0344 9 13.2456C9 13.4569 9.07187 13.6354 9.21562 13.7812C9.35938 13.9271 9.5375 14 9.75 14ZM9.75 10.75H13.25C13.4625 10.75 13.6406 10.6785 13.7844 10.5356C13.9281 10.3927 14 10.2156 14 10.0044C14 9.79312 13.9281 9.61458 13.7844 9.46875C13.6406 9.32292 13.4625 9.25 13.25 9.25H9.75C9.5375 9.25 9.35938 9.32146 9.21562 9.46438C9.07187 9.60729 9 9.78438 9 9.99563C9 10.2069 9.07187 10.3854 9.21562 10.5312C9.35938 10.6771 9.5375 10.75 9.75 10.75ZM9.75 7.5H13.25C13.4625 7.5 13.6406 7.42854 13.7844 7.28563C13.9281 7.14271 14 6.96563 14 6.75438C14 6.54313 13.9281 6.36458 13.7844 6.21875C13.6406 6.07292 13.4625 6 13.25 6H9.75C9.5375 6 9.35938 6.07146 9.21562 6.21437C9.07187 6.35729 9 6.53437 9 6.74562C9 6.95687 9.07187 7.13542 9.21562 7.28125C9.35938 7.42708 9.5375 7.5 9.75 7.5ZM4.5 17C4.0875 17 3.73438 16.8531 3.44062 16.5594C3.14687 16.2656 3 15.9125 3 15.5V4.5C3 4.0875 3.14687 3.73438 3.44062 3.44063C3.73438 3.14688 4.0875 3 4.5 3H15.5C15.9125 3 16.2656 3.14688 16.5594 3.44063C16.8531 3.73438 17 4.0875 17 4.5V15.5C17 15.9125 16.8531 16.2656 16.5594 16.5594C16.2656 16.8531 15.9125 17 15.5 17H4.5Z" fill="#686868"/>
</svg>
