<svg width="20" height="20" viewBox="0 0 20 20" fill="none" xmlns="http://www.w3.org/2000/svg">
<path d="M9.17501 12.475V14.4C9.17501 14.6337 9.25362 14.8297 9.41083 14.9878C9.56803 15.1459 9.76283 15.225 9.9952 15.225C10.2276 15.225 10.424 15.1459 10.5844 14.9878C10.7448 14.8297 10.825 14.6337 10.825 14.4V12.475H12.75C12.9838 12.475 13.1797 12.3964 13.3378 12.2392C13.496 12.082 13.575 11.8872 13.575 11.6548C13.575 11.4224 13.496 11.226 13.3378 11.0656C13.1797 10.9052 12.9838 10.825 12.75 10.825H10.825V8.9C10.825 8.66625 10.7464 8.47031 10.5892 8.31218C10.432 8.15406 10.2372 8.075 10.0048 8.075C9.77245 8.075 9.57605 8.15406 9.41564 8.31218C9.25522 8.47031 9.17501 8.66625 9.17501 8.9V10.825H7.25001C7.01626 10.825 6.82032 10.9036 6.6622 11.0608C6.50408 11.218 6.42501 11.4128 6.42501 11.6452C6.42501 11.8776 6.50408 12.074 6.6622 12.2344C6.82032 12.3948 7.01626 12.475 7.25001 12.475H9.17501ZM2.85001 18.8C2.39626 18.8 2.00782 18.6384 1.6847 18.3153C1.36157 17.9922 1.20001 17.6037 1.20001 17.15V6.15C1.20001 5.69625 1.36157 5.30781 1.6847 4.98469C2.00782 4.66156 2.39626 4.5 2.85001 4.5H6.70001V2.84518C6.70001 2.39006 6.8618 2.00208 7.18539 1.68125C7.50882 1.36041 7.89771 1.2 8.35207 1.2H11.656C12.1103 1.2 12.4979 1.36156 12.8188 1.68468C13.1396 2.00781 13.3 2.39625 13.3 2.85V4.5H17.15C17.6038 4.5 17.9922 4.66156 18.3153 4.98469C18.6385 5.30781 18.8 5.69625 18.8 6.15V17.15C18.8 17.6037 18.6385 17.9922 18.3153 18.3153C17.9922 18.6384 17.6038 18.8 17.15 18.8H2.85001ZM2.85001 17.15H17.15V6.15H2.85001V17.15ZM8.35001 4.5H11.65V2.85H8.35001V4.5Z" fill="#686868"/>
</svg>
