<svg width="20" height="20" viewBox="0 0 20 20" fill="none" xmlns="http://www.w3.org/2000/svg">
<path fill-rule="evenodd" clip-rule="evenodd" d="M15.7926 6.41357H16.8085C17.1245 6.41357 17.4276 6.53741 17.651 6.75784C17.8745 6.97828 18 7.27726 18 7.58901V16.8246C18 17.1364 17.8745 17.4353 17.651 17.6558C17.4276 17.8762 17.1245 18 16.8085 18H3.19149C2.87548 18 2.57243 17.8762 2.34898 17.6558C2.12553 17.4353 2 17.1364 2 16.8246V7.58901C2 7.27726 2.12553 6.97828 2.34898 6.75784C2.57243 6.53741 2.87548 6.41357 3.19149 6.41357H4.20687C4.2438 6.34007 4.29266 6.27288 4.35163 6.21472L7.65379 2.95871C8.27622 2.34485 9.12031 2 10.0004 2C10.8805 2 11.7246 2.34485 12.3471 2.95871L15.6483 6.21556C15.707 6.27347 15.7557 6.34047 15.7926 6.41357ZM13.6822 6.41357L11.2639 4.02727C11.098 3.86348 10.9009 3.73357 10.6841 3.64494C10.4671 3.5563 10.2347 3.51068 10 3.51068C9.76525 3.51068 9.53281 3.5563 9.31594 3.64494C9.09907 3.73357 8.90203 3.86348 8.73607 4.02727L6.31781 6.41357H13.6822ZM7.02128 8.93237C6.81813 8.93237 6.62331 9.01198 6.47966 9.15369C6.33602 9.2954 6.25532 9.4876 6.25532 9.68801C6.25532 9.88842 6.33602 10.0806 6.47966 10.2223C6.6233 10.364 6.81813 10.4436 7.02128 10.4436H12.9787C13.1819 10.4436 13.3767 10.364 13.5203 10.2223C13.664 10.0806 13.7447 9.88841 13.7447 9.68801C13.7447 9.4876 13.664 9.2954 13.5203 9.15369C13.3767 9.01198 13.1819 8.93237 12.9787 8.93237H7.02128ZM5.6286 11.6725C5.77225 11.5308 5.96706 11.4512 6.17021 11.4512H13.8298C14.0329 11.4512 14.2277 11.5308 14.3714 11.6725C14.5151 11.8142 14.5957 12.0064 14.5957 12.2068C14.5957 12.4072 14.5151 12.5994 14.3714 12.7411C14.2277 12.8828 14.0329 12.9624 13.8298 12.9624H6.17021C5.96706 12.9624 5.77224 12.8828 5.6286 12.7411C5.48495 12.5994 5.40426 12.4072 5.40426 12.2068C5.40426 12.0064 5.48495 11.8142 5.6286 11.6725ZM7.02128 13.97C6.81813 13.97 6.62331 14.0496 6.47966 14.1913C6.33602 14.333 6.25532 14.5252 6.25532 14.7256C6.25532 14.926 6.33602 15.1182 6.47966 15.2599C6.6233 15.4016 6.81813 15.4813 7.02128 15.4813H12.9787C13.1819 15.4813 13.3767 15.4016 13.5203 15.2599C13.664 15.1182 13.7447 14.926 13.7447 14.7256C13.7447 14.5252 13.664 14.333 13.5203 14.1913C13.3767 14.0496 13.1819 13.97 12.9787 13.97H7.02128Z" fill="#686868"/>
</svg>
