<svg width="20" height="20" viewBox="0 0 20 20" fill="none" xmlns="http://www.w3.org/2000/svg">
<path d="M3.5 17C3.35556 17 3.23611 16.9528 3.14167 16.8583C3.04722 16.7639 3 16.6444 3 16.5C3 16.3556 3.04722 16.2361 3.14167 16.1417C3.23611 16.0472 3.35556 16 3.5 16H5V15.5H4.5C4.35556 15.5 4.23611 15.4514 4.14167 15.3542C4.04722 15.2569 4 15.1389 4 15C4 14.8611 4.04722 14.744 4.14167 14.6485C4.23611 14.5531 4.35556 14.5054 4.5 14.5054H5V14H3.5C3.35556 14 3.23611 13.9514 3.14167 13.8542C3.04722 13.7569 3 13.6389 3 13.5C3 13.3611 3.04722 13.2431 3.14167 13.1458C3.23611 13.0486 3.35556 13 3.5 13H5.5C5.64167 13 5.76042 13.0479 5.85625 13.1438C5.95208 13.2396 6 13.3583 6 13.5V14.5C6 14.6417 5.95208 14.7604 5.85625 14.8562C5.76042 14.9521 5.64167 15 5.5 15C5.64167 15 5.76042 15.0479 5.85625 15.1438C5.95208 15.2396 6 15.3583 6 15.5V16.5C6 16.6417 5.95208 16.7604 5.85625 16.8563C5.76042 16.9521 5.64167 17 5.5 17H3.5ZM3.5625 12C3.40972 12 3.27778 11.9444 3.16667 11.8333C3.05556 11.7222 3 11.589 3 11.4338V10C3 9.85833 3.04792 9.73958 3.14375 9.64375C3.23958 9.54792 3.35833 9.5 3.5 9.5H5V9H3.5C3.35556 9 3.23611 8.95139 3.14167 8.85417C3.04722 8.75694 3 8.63889 3 8.5C3 8.36111 3.04722 8.24306 3.14167 8.14583C3.23611 8.04861 3.35556 8 3.5 8H5.5C5.64167 8 5.76042 8.04792 5.85625 8.14375C5.95208 8.23958 6 8.35833 6 8.5V10C6 10.1417 5.95208 10.2604 5.85625 10.3563C5.76042 10.4521 5.64167 10.5 5.5 10.5H4V11H5.5C5.64444 11 5.76389 11.0486 5.85833 11.1458C5.95278 11.2431 6 11.3611 6 11.5C6 11.6389 5.95278 11.7569 5.85833 11.8542C5.76389 11.9514 5.64444 12 5.5 12H3.5625ZM4.14917 6.85792C4.05403 6.76333 4.00646 6.64361 4.00646 6.49875V3.99229H3.50333C3.35792 3.99229 3.23764 3.945 3.1425 3.85042C3.0475 3.75569 3 3.63889 3 3.5C3 3.36111 3.04722 3.24306 3.14167 3.14583C3.23611 3.04861 3.35556 3 3.5 3H4.4375C4.59028 3 4.72222 3.05556 4.83333 3.16667C4.94444 3.27778 5 3.40972 5 3.5625V6.49646C5 6.63771 4.95139 6.75694 4.85417 6.85417C4.75694 6.95139 4.63889 7 4.5 7C4.36111 7 4.24417 6.95264 4.14917 6.85792ZM8.25 15C8.0375 15 7.85938 14.9285 7.71563 14.7856C7.57188 14.6427 7.5 14.4656 7.5 14.2544C7.5 14.0431 7.57188 13.8646 7.71563 13.7188C7.85938 13.5729 8.0375 13.5 8.25 13.5H16.25C16.4625 13.5 16.6406 13.5715 16.7844 13.7144C16.9281 13.8573 17 14.0344 17 14.2456C17 14.4569 16.9281 14.6354 16.7844 14.7812C16.6406 14.9271 16.4625 15 16.25 15H8.25ZM8.25 10.75C8.0375 10.75 7.85938 10.6785 7.71563 10.5356C7.57188 10.3927 7.5 10.2156 7.5 10.0044C7.5 9.79313 7.57188 9.61458 7.71563 9.46875C7.85938 9.32292 8.0375 9.25 8.25 9.25H16.25C16.4625 9.25 16.6406 9.32146 16.7844 9.46438C16.9281 9.60729 17 9.78438 17 9.99563C17 10.2069 16.9281 10.3854 16.7844 10.5312C16.6406 10.6771 16.4625 10.75 16.25 10.75H8.25ZM8.25 6.5C8.0375 6.5 7.85938 6.42854 7.71563 6.28563C7.57188 6.14271 7.5 5.96563 7.5 5.75438C7.5 5.54313 7.57188 5.36458 7.71563 5.21875C7.85938 5.07292 8.0375 5 8.25 5H16.25C16.4625 5 16.6406 5.07146 16.7844 5.21437C16.9281 5.35729 17 5.53437 17 5.74562C17 5.95687 16.9281 6.13542 16.7844 6.28125C16.6406 6.42708 16.4625 6.5 16.25 6.5H8.25Z" fill="#686868"/>
</svg>
