<svg width="20" height="20" viewBox="0 0 20 20" fill="none" xmlns="http://www.w3.org/2000/svg">
<path d="M13.2812 8.85418H8.15625C7.46181 8.85418 6.87153 9.09723 6.38542 9.58334C5.89931 10.0695 5.65625 10.6597 5.65625 11.3542C5.65625 12.0486 5.89931 12.6389 6.38542 13.125C6.87153 13.6111 7.46181 13.8542 8.15625 13.8542H13.4062C13.6146 13.8542 13.7917 13.9271 13.9375 14.0729C14.0833 14.2188 14.1562 14.3958 14.1562 14.6042C14.1562 14.8125 14.0833 14.9896 13.9375 15.1354C13.7917 15.2813 13.6146 15.3542 13.4062 15.3542H8.15625C7.04514 15.3542 6.10069 14.9653 5.32292 14.1875C4.54514 13.4097 4.15625 12.4653 4.15625 11.3542C4.15625 10.2431 4.54514 9.29862 5.32292 8.52084C6.10069 7.74307 7.04514 7.35418 8.15625 7.35418H13.2812L11.8646 5.93751C11.7118 5.78473 11.6354 5.60765 11.6354 5.40626C11.6354 5.20487 11.7118 5.02779 11.8646 4.87501C12.0174 4.72223 12.1944 4.64584 12.3958 4.64584C12.5972 4.64584 12.7743 4.72223 12.9271 4.87501L15.6354 7.58334C15.7049 7.65279 15.7569 7.73265 15.7917 7.82293C15.8264 7.9132 15.8438 8.00695 15.8438 8.10418C15.8438 8.2014 15.8264 8.29515 15.7917 8.38543C15.7569 8.4757 15.7049 8.55557 15.6354 8.62501L12.9271 11.3333C12.7743 11.4861 12.6007 11.559 12.4062 11.5521C12.2118 11.5451 12.0382 11.4653 11.8854 11.3125C11.7326 11.1597 11.6562 10.9826 11.6562 10.7813C11.6562 10.5799 11.7326 10.4028 11.8854 10.25L13.2812 8.85418Z" fill="#686868"/>
</svg>
