<svg width="20" height="20" viewBox="0 0 20 20" fill="none" xmlns="http://www.w3.org/2000/svg">
<path d="M8.375 4.5H3.625V15.5H8.375V4.5ZM3.625 17C3.2125 17 2.85938 16.8531 2.56562 16.5594C2.27187 16.2656 2.125 15.9125 2.125 15.5V4.5C2.125 4.0875 2.27187 3.73438 2.56562 3.44063C2.85938 3.14688 3.2125 3 3.625 3H14.625C15.0375 3 15.3906 3.14653 15.6844 3.43958C15.9781 3.73264 16.125 4.08486 16.125 4.49625V5.24458C16.125 5.45653 16.0535 5.63542 15.9106 5.78125C15.7677 5.92708 15.5906 6 15.3794 6C15.1681 6 14.9896 5.92813 14.8438 5.78438C14.6979 5.64063 14.625 5.4625 14.625 5.25V4.5H9.875V15.5H14.625V14.7544C14.625 14.5431 14.6965 14.3646 14.8394 14.2188C14.9823 14.0729 15.1594 14 15.3706 14C15.5819 14 15.7604 14.0721 15.9062 14.2163C16.0521 14.3604 16.125 14.5391 16.125 14.7523V15.5044C16.125 15.9181 15.9781 16.2708 15.6844 16.5625C15.3906 16.8542 15.0375 17 14.625 17H3.625ZM14.8438 12.2844C14.6979 12.1406 14.625 11.9625 14.625 11.75V10.75H13.625C13.4125 10.75 13.2344 10.6785 13.0906 10.5356C12.9469 10.3927 12.875 10.2156 12.875 10.0044C12.875 9.79312 12.9469 9.61458 13.0906 9.46875C13.2344 9.32292 13.4125 9.25 13.625 9.25H14.625V8.25C14.625 8.0375 14.6965 7.85938 14.8394 7.71562C14.9823 7.57187 15.1594 7.5 15.3706 7.5C15.5819 7.5 15.7604 7.57187 15.9062 7.71562C16.0521 7.85938 16.125 8.0375 16.125 8.25V9.25H17.125C17.3375 9.25 17.5156 9.32146 17.6594 9.46438C17.8031 9.60729 17.875 9.78438 17.875 9.99563C17.875 10.2069 17.8031 10.3854 17.6594 10.5312C17.5156 10.6771 17.3375 10.75 17.125 10.75H16.125V11.75C16.125 11.9625 16.0535 12.1406 15.9106 12.2844C15.7677 12.4281 15.5906 12.5 15.3794 12.5C15.1681 12.5 14.9896 12.4281 14.8438 12.2844Z" fill="#686868"/>
</svg>
