<svg width="20" height="20" viewBox="0 0 20 20" fill="none" xmlns="http://www.w3.org/2000/svg">
<path d="M4.5 11.625V16.375H15.5V11.625H4.5ZM4.5 17.875C4.0875 17.875 3.73438 17.7281 3.44062 17.4344C3.14687 17.1406 3 16.7875 3 16.375V5.375C3 4.9625 3.14653 4.60938 3.43958 4.31563C3.73264 4.02188 4.08486 3.875 4.49625 3.875H5.24458C5.45653 3.875 5.63542 3.94646 5.78125 4.08937C5.92708 4.23229 6 4.40937 6 4.62062C6 4.83187 5.92812 5.01042 5.78437 5.15625C5.64062 5.30208 5.4625 5.375 5.25 5.375H4.5V10.125H15.5V5.375H14.7544C14.5431 5.375 14.3646 5.30354 14.2188 5.16063C14.0729 5.01771 14 4.84063 14 4.62938C14 4.41813 14.0721 4.23958 14.2163 4.09375C14.3604 3.94792 14.5391 3.875 14.7523 3.875H15.5044C15.9181 3.875 16.2708 4.02188 16.5625 4.31563C16.8542 4.60938 17 4.9625 17 5.375V16.375C17 16.7875 16.8531 17.1406 16.5594 17.4344C16.2656 17.7281 15.9125 17.875 15.5 17.875H4.5ZM9.25 5.375H8.25C8.0375 5.375 7.85938 5.30354 7.71562 5.16063C7.57187 5.01771 7.5 4.84063 7.5 4.62938C7.5 4.41813 7.57187 4.23958 7.71562 4.09375C7.85938 3.94792 8.0375 3.875 8.25 3.875H9.25V2.875C9.25 2.6625 9.32146 2.48437 9.46438 2.34062C9.60729 2.19687 9.78438 2.125 9.99563 2.125C10.2069 2.125 10.3854 2.19687 10.5312 2.34062C10.6771 2.48437 10.75 2.6625 10.75 2.875V3.875H11.75C11.9625 3.875 12.1406 3.94646 12.2844 4.08937C12.4281 4.23229 12.5 4.40937 12.5 4.62062C12.5 4.83187 12.4281 5.01042 12.2844 5.15625C12.1406 5.30208 11.9625 5.375 11.75 5.375H10.75V6.375C10.75 6.5875 10.6785 6.76562 10.5356 6.90938C10.3927 7.05313 10.2156 7.125 10.0044 7.125C9.79312 7.125 9.61458 7.05313 9.46875 6.90938C9.32292 6.76562 9.25 6.5875 9.25 6.375V5.375Z" fill="#686868"/>
</svg>
