<svg width="20" height="20" viewBox="0 0 20 20" fill="none" xmlns="http://www.w3.org/2000/svg">
<mask id="mask0_13735_5160" style="mask-type:alpha" maskUnits="userSpaceOnUse" x="0" y="0" width="20" height="20">
<rect width="20" height="20" fill="#D9D9D9"/>
</mask>
<g mask="url(#mask0_13735_5160)">
<path d="M12.7292 10.5837L11.375 9.25033H12.2442C12.4583 9.25033 12.6378 9.3222 12.7827 9.46595C12.9276 9.6097 13 9.78783 13 10.0003C13 10.1253 12.9722 10.2364 12.9167 10.3337C12.8611 10.4309 12.7917 10.5142 12.7083 10.5837H12.7292ZM16.5417 17.5837C16.3889 17.7364 16.2118 17.8128 16.0104 17.8128C15.809 17.8128 15.6319 17.7364 15.4792 17.5837L2.39583 4.52116C2.24306 4.36838 2.16667 4.1913 2.16667 3.98991C2.16667 3.78852 2.24306 3.61144 2.39583 3.45866C2.54861 3.30588 2.72569 3.22949 2.92708 3.22949C3.12847 3.22949 3.30556 3.30588 3.45833 3.45866L16.5417 16.542C16.6944 16.6948 16.7708 16.8684 16.7708 17.0628C16.7708 17.2573 16.6944 17.4309 16.5417 17.5837ZM6 14.0003C4.89333 14.0003 3.95 13.6103 3.17 12.8303C2.39 12.0503 2 11.107 2 10.0003C2 9.11241 2.26389 8.32095 2.79167 7.62595C3.31944 6.93109 4.06944 6.38227 5.04167 5.97949L6.5 7.50033H6.02083C5.3125 7.50033 4.71528 7.74338 4.22917 8.22949C3.74306 8.7156 3.5 9.30588 3.5 10.0003C3.5 10.6948 3.74306 11.285 4.22917 11.7712C4.71528 12.2573 5.30556 12.5003 6 12.5003H8.25C8.4625 12.5003 8.64062 12.5718 8.78438 12.7147C8.92813 12.8576 9 13.0347 9 13.246C9 13.4572 8.92813 13.6357 8.78438 13.7816C8.64062 13.9274 8.4625 14.0003 8.25 14.0003H6ZM7.74771 10.7503C7.5409 10.7503 7.36458 10.6789 7.21875 10.536C7.07292 10.393 7 10.216 7 10.0047C7 9.79345 7.07188 9.61491 7.21563 9.46908C7.35938 9.32324 7.5375 9.25033 7.75 9.25033H8.16667L9.64583 10.7503H7.74771ZM15.1875 13.0837C15.0764 12.917 15.0382 12.733 15.0729 12.5316C15.1076 12.3302 15.2083 12.1739 15.375 12.0628C15.7222 11.8267 15.9965 11.5281 16.1979 11.167C16.3993 10.8059 16.5 10.417 16.5 10.0003C16.5 9.30588 16.2569 8.7156 15.7708 8.22949C15.2847 7.74338 14.6944 7.50033 14 7.50033H11.75C11.5375 7.50033 11.3594 7.42887 11.2156 7.28595C11.0719 7.14303 11 6.96595 11 6.7547C11 6.54345 11.0719 6.36491 11.2156 6.21908C11.3594 6.07324 11.5375 6.00033 11.75 6.00033H14C15.1067 6.00033 16.05 6.39033 16.83 7.17033C17.61 7.95033 18 8.89366 18 10.0003C18 10.6707 17.8403 11.2966 17.5208 11.878C17.2014 12.4596 16.7639 12.9309 16.2083 13.292C16.0417 13.4031 15.8576 13.4378 15.6562 13.3962C15.4549 13.3545 15.2986 13.2503 15.1875 13.0837Z" fill="#282828"/>
</g>
</svg>
